<?xml version="1.0" encoding="utf-8"?>
<!-- Generator: Adobe Illustrator 15.1.0, SVG Export Plug-In . SVG Version: 6.00 Build 0)  -->
<!DOCTYPE svg PUBLIC "-//W3C//DTD SVG 1.1//EN" "http://www.w3.org/Graphics/SVG/1.1/DTD/svg11.dtd">
<svg version="1.1" xmlns="http://www.w3.org/2000/svg" xmlns:xlink="http://www.w3.org/1999/xlink" x="0px" y="0px"
	 width="488.64px" height="388.561px" viewBox="0 0 488.64 388.561" enable-background="new 0 0 488.64 388.561"
	 xml:space="preserve">
<g id="Layer_0_xA0_Image_1_">
	<g>
		<!-- <path fill-rule="evenodd" clip-rule="evenodd" fill="#FFFFFF" d="M118.08,49.68c22.64,0,45.28,0,67.92,0
			c-0.191,0.769-2.324,2.476-2.64,3.12c0.397,25.283,0.401,52.238,0,77.52c-20.242,0.558-41.519,0.081-62.16,0.24
			c-0.389-24.433-0.407-52.534,0-77.76c-0.938-1.063-1.587-2.413-3.12-2.88C118.08,49.84,118.08,49.76,118.08,49.68z"/> -->
		<path fill-rule="evenodd" clip-rule="evenodd" fill="#F17A12" d="M58.32,49.68c19.92,0,57.475,0,59.76,0s3.202,1.038,3.202,3.183
			c-0.407,25.226-0.082,77.697-0.082,77.697l62.16-0.24c0,0,0.397-52.237,0-77.52c0.067-1.395,0.13-2.395,2.64-3.12
			c0.16,0,0.32,0,0.48,0c26.4,0.56,107.52,0.24,120.96,0.24c34.175,0,54.374,22.23,62.399,37.92s7.615,47.129-1.68,62.16
			s-28.295,27.03-41.76,31.68c0.022,2.49,67.109,83.291,67.92,89.04c0,0.16,0,0.32,0,0.48c-0.312,2.809-2.193,4.047-4.08,5.28
			c-21.23,0.164-45.097-0.322-66.72,0.239c-11.213-13.106-67.321-80.855-67.321-80.855l-7.334-0.334c0,0-1.927,65.357-2.112,78.125
			c-0.021,1.505-0.717,2.357-1.949,2.379c-8.375,0.146-42.116,0.683-59.284,0.206c-1.217,0-2.16-0.585-2.16-3.12
			c0-2.027-0.162-77.34-0.162-77.34l-61.999,0.06c0,0-0.251,77.265-0.251,78.857c0,1.47-1.396,1.783-2.628,1.783
			c-2.83,0-56.42-0.138-59.08-0.138c-1.813,0-3.32-0.388-3.32-3.75c0-1.888,0.24-216.896,0.24-220.993
			C56.49,50.405,57.302,49.968,58.32,49.68z M296.449,132.72c6.885,0,13.333-8.773,13.333-16.523
			c0-6.259-3.945-15.417-16.083-15.417s-45.045-0.206-45.045-0.206L248.4,132.24C248.4,132.24,289.564,132.72,296.449,132.72z"/>
	</g>
</g>
<g id="CONTROL">
	<text transform="matrix(0 -1 1 0 447.0269 278.8691)" fill="#F17A12" font-family="'MyriadPro-Bold'" font-size="52.01">CONTROL</text>
</g>
<g id="POLYGRAPH">
	
		<text transform="matrix(1 0 0 1 53.7588 336.2383)" fill="#EC8017" font-family="'MyriadPro-Bold'" font-size="52.01" letter-spacing="4">POLYGRAPH</text>
</g>
</svg>
