<?xml version="1.0" encoding="utf-8"?>
<!-- Generator: Adobe Illustrator 23.0.0, SVG Export Plug-In . SVG Version: 6.00 Build 0)  -->
<svg version="1.1" id="svg" xmlns="http://www.w3.org/2000/svg" xmlns:xlink="http://www.w3.org/1999/xlink" x="0px" y="0px"
	 width="20.5px" height="40px" viewBox="0 0 20.5 40" style="enable-background:new 0 0 20.5 40;" xml:space="preserve">
<style type="text/css">
	.st0{fill-rule:evenodd;clip-rule:evenodd;fill:#FFFFFF;}
</style>
<g id="svgg">
	<path id="path0" class="st0" d="M9.7,9.8C8,9.9,6.4,10.3,5.1,11c-0.2,0.1-0.3,0.2-0.3,0.2c0,0-0.9,0.6-1.2,0.8
		c-4.5,3.6-4.9,10.6-0.8,14.7c0.1,0.1,0.3,0.3,0.4,0.4c0.3,0.3,0.3,0.4,0.3,1.4c0,1.3,0,1.4,0.3,1.6c0.3,0.3,0.6,0.3,1.2,0.1
		c0.4-0.2,1.8-0.8,1.9-0.8c0.2-0.1,0.3,0,0.7,0c2.3,0.6,4.7,0.4,6.9-0.4c4.4-1.8,6.8-6.2,6-11C19.5,12.9,15,9.5,9.7,9.8 M16.3,16.7
		c0.4,0.2,0.3,0.3-0.4,1.6c-0.3,0.5-0.7,1.2-1,1.5c-0.2,0.3-0.5,0.8-0.6,0.9c-0.4,0.6-0.6,1-0.8,1.2c-0.4,0.6-0.8,0.9-1.4,0.9
		c-0.6,0-0.5,0-2-1.1c-1.5-1.1-1.4-1.1-1.6-1.1c-0.3-0.1-0.3-0.1-1.3,0.7c-2.4,1.9-2.5,1.9-2.6,1.9c-0.3,0-0.6-0.2-0.6-0.5
		c0-0.2,0-0.2,0.3-0.6C4.5,22,4.6,21.8,5,21.2c0.1-0.1,0.2-0.3,0.3-0.4c0.1-0.1,0.2-0.3,0.3-0.4c0.1-0.1,0.3-0.4,0.4-0.7
		c0.2-0.3,0.4-0.7,0.6-0.9C6.7,18.5,6.9,18.1,7,18c0.4-0.6,0.8-0.8,1.4-0.8c0.5,0,0.5,0,2.1,1.2c1.4,1,1.4,1,1.6,1
		c0.2,0,0.1,0.1,2.5-1.8C15.9,16.6,16,16.5,16.3,16.7"/>
</g>
</svg>
